<?xml version="1.0" encoding="UTF-8" standalone="no"?>
<!-- Generator: Adobe Illustrator 21.0.0, SVG Export Plug-In . SVG Version: 6.00 Build 0)  -->

<svg
   xmlns:dc="http://purl.org/dc/elements/1.1/"
   xmlns:cc="http://creativecommons.org/ns#"
   xmlns:rdf="http://www.w3.org/1999/02/22-rdf-syntax-ns#"
   xmlns:svg="http://www.w3.org/2000/svg"
   xmlns="http://www.w3.org/2000/svg"
   xmlns:sodipodi="http://sodipodi.sourceforge.net/DTD/sodipodi-0.dtd"
   xmlns:inkscape="http://www.inkscape.org/namespaces/inkscape"
   version="1.1"
   id="Layer_1"
   x="0px"
   y="0px"
   viewBox="0 0 191.70001 166"
   xml:space="preserve"
   sodipodi:docname="OCTI PCB.svg"
   width="50.720627mm"
   height="43.920834mm"
   inkscape:version="0.92.1 r15371"><metadata
     id="metadata3739"><rdf:RDF><cc:Work
         rdf:about=""><dc:format>image/svg+xml</dc:format><dc:type
           rdf:resource="http://purl.org/dc/dcmitype/StillImage" /><dc:title></dc:title></cc:Work></rdf:RDF></metadata><defs
     id="defs3737" /><sodipodi:namedview
     pagecolor="#ffffff"
     bordercolor="#666666"
     borderopacity="1"
     objecttolerance="10"
     gridtolerance="10"
     guidetolerance="10"
     inkscape:pageopacity="0"
     inkscape:pageshadow="2"
     inkscape:window-width="1920"
     inkscape:window-height="1017"
     id="namedview3735"
     showgrid="false"
     units="mm"
     fit-margin-top="0"
     fit-margin-left="0"
     fit-margin-right="0"
     fit-margin-bottom="0"
     inkscape:zoom="4.5698925"
     inkscape:cx="95.849998"
     inkscape:cy="82.999994"
     inkscape:window-x="-8"
     inkscape:window-y="-8"
     inkscape:window-maximized="1"
     inkscape:current-layer="XMLID_13_" /><style
     type="text/css"
     id="style3680">
	.st0{fill:#333333;}
	.st1{fill:#50B648;}
	.st2{fill:#FFFFFF;}
	.st3{fill:#24501B;}
	.st4{fill:#5C9E20;}
	.st5{fill:#302C23;}
	.st6{fill:url(#SVGID_1_);}
	.st7{opacity:0.69;}
	.st8{fill:url(#SVGID_2_);}
	.st9{fill:#CEB15F;}
</style><g
     id="XMLID_13_"
     transform="translate(-9,-10)"><polygon
       id="XMLID_26_"
       class="st3"
       points="56.9,176 152.8,176 200.7,93 152.8,10 56.9,10 9,93 "
       style="fill:#24501b" /><g
       id="XMLID_18_"><path
         class="st5"
         d="M 148.2,17.5 H 61.6 l -43.3,75 43.3,75 h 86.6 l 43.3,-75 z m -3.3,144.4 H 64.8 l -40,-69.3 40,-69.3 h 80.1 l 40,69.3 z"
         id="path3683"
         inkscape:connector-curvature="0"
         style="fill:#302c23" /><linearGradient
         id="SVGID_1_"
         gradientUnits="userSpaceOnUse"
         x1="18.2591"
         y1="92.522301"
         x2="191.4706"
         y2="92.522301"><stop
           offset="0"
           style="stop-color:#FFFFFF"
           id="stop3685" /><stop
           offset="0.1685"
           style="stop-color:#0B0B0B"
           id="stop3687" /><stop
           offset="0.2637"
           style="stop-color:#7F7F7F"
           id="stop3689" /><stop
           offset="0.3956"
           style="stop-color:#8E8E8E"
           id="stop3691" /><stop
           offset="0.5421"
           style="stop-color:#636363"
           id="stop3693" /><stop
           offset="0.6264"
           style="stop-color:#5F5F5F"
           id="stop3695" /><stop
           offset="0.7179"
           style="stop-color:#EAEAEA"
           id="stop3697" /><stop
           offset="0.7912"
           style="stop-color:#FFFFFF"
           id="stop3699" /><stop
           offset="1"
           style="stop-color:#000000"
           id="stop3701" /></linearGradient><path
         class="st6"
         d="M 148.2,17.5 H 61.6 l -43.3,75 43.3,75 h 86.6 l 43.3,-75 z m -3.3,144.4 H 64.8 l -40,-69.3 40,-69.3 h 80.1 l 40,69.3 z"
         id="path3704"
         inkscape:connector-curvature="0"
         style="fill:url(#SVGID_1_)" /><g
         class="st7"
         id="g3713"
         style="opacity:0.68999999"><linearGradient
           id="SVGID_2_"
           gradientUnits="userSpaceOnUse"
           x1="104.8649"
           y1="167.5251"
           x2="104.8649"
           y2="17.519501"><stop
             offset="0"
             style="stop-color:#FFFFFF;stop-opacity:0"
             id="stop3706" /><stop
             offset="1"
             style="stop-color:#FFFFFF"
             id="stop3708" /></linearGradient><path
           class="st8"
           d="M 148.2,17.5 H 61.6 l -43.3,75 43.3,75 h 86.6 l 43.3,-75 z m -3.3,144.4 H 64.8 l -40,-69.3 40,-69.3 h 80.1 l 40,69.3 z"
           id="path3711"
           inkscape:connector-curvature="0"
           style="fill:url(#SVGID_2_)" /></g></g><g
       id="XMLID_16_"><g
         id="g3718"><path
           class="st2"
           d="m 160.2,89 c 0,-0.5 0.1,-3.6 -1.9,-6.5 -2.2,-3.1 -5.6,-4.5 -8.1,-4.8 -2.5,-0.3 -5.7,0.1 -8.4,2.1 -2.7,2 -3.9,4.7 -4.4,7.3 -0.5,2.6 -0.7,8.6 -1.4,13.2 -0.3,2.1 -0.6,4.7 -3,5.8 -2.4,1.2 -5.4,0.5 -6.7,-0.4 -2.1,-1.7 -2.4,-3.3 -2.6,-4.4 -0.4,-2.2 -0.2,-3.1 -0.3,-4.4 -0.1,-1.4 -0.1,-6.5 -0.1,-6.5 0,0 3.9,-0.9 6.4,-4.3 0,0 3.2,-4.3 1.9,-9.3 -1.3,-5 -4.6,-7.4 -7.7,-8.5 0,0 0.6,-4.5 -1.4,-8.7 -2,-4.2 -4.6,-7 -8.1,-8.9 -3.5,-1.8 -6.4,-2.2 -8.7,-2.2 v 0 c -2.3,0 -5.2,0.4 -8.7,2.2 -3.5,1.8 -6,4.7 -8.1,8.9 -2,4.2 -1.4,8.7 -1.4,8.7 -3.1,1.1 -6.4,3.4 -7.7,8.5 -1.3,5 1.9,9.3 1.9,9.3 2.5,3.4 6.4,4.3 6.4,4.3 0,0 0,5.1 -0.1,6.5 -0.1,1.4 0,2.2 -0.3,4.4 -0.2,1.1 -0.5,2.8 -2.6,4.4 -1.2,1 -4.2,1.6 -6.7,0.4 -2.4,-1.2 -2.8,-3.8 -3,-5.8 -0.6,-4.6 -0.9,-10.6 -1.4,-13.2 -0.5,-2.6 -1.7,-5.3 -4.4,-7.3 -2.7,-2 -6,-2.5 -8.4,-2.1 -2.5,0.3 -5.8,1.7 -8.1,4.8 -2,2.9 -2,6 -1.9,6.5 -1.1,0.9 -1.8,2.2 -1.8,3.8 0,2.7 2.2,4.9 4.9,4.9 2.7,0 4.9,-2.2 4.9,-4.9 0,-1.6 -0.8,-3 -2,-3.9 0,-0.5 0.1,-1.9 0.5,-2.6 0.5,-0.9 1.9,-2.2 3.4,-2.6 1.5,-0.5 3.6,-0.1 4.9,0.7 1.3,0.9 2.1,1.9 2.3,3.1 0.4,2.4 0.2,5.8 0.5,9.4 0.4,4.6 1.3,7.2 1.3,7.2 0.7,1.9 2.7,6.5 8.2,8.1 5.5,1.6 9.7,-1.9 9.7,-1.9 0,0 0.1,2.1 -0.4,3.5 -0.4,1.5 -1.5,3.4 -2.8,5.1 -1.3,1.7 -3.9,3.6 -8.6,4.1 -4.8,0.6 -9.3,-2.8 -11.2,-5.9 -1.9,-3 -1.9,-6.4 -1.9,-6.4 l -0.1,0.1 c 1.7,-0.9 2.8,-2.7 2.8,-4.8 0,-3 -2.5,-5.5 -5.5,-5.5 -3,0 -5.5,2.5 -5.5,5.5 0,2.1 1.1,3.8 2.8,4.8 l -0.4,-0.2 c -0.2,2.9 1.8,8.4 3.6,11 1.9,2.5 6,6.2 11.9,7.1 6,0.9 11,-1.4 14.5,-4.1 3.4,-2.7 5.5,-7.3 6.1,-9.5 0.6,-2.3 0.6,-5.8 0.6,-5.8 v -19.1 0 c 4.9,-1.3 8.5,-5.7 8.5,-11.1 0,-5.4 -3.8,-10 -8.9,-11.1 v 0.2 c 0,-1.3 -0.1,-2.8 0.2,-4.2 0.3,-1.5 1.6,-5 5.1,-7.4 3.4,-2.4 7.1,-2.2 7.1,-2.2 v 0 c 0,0 3.7,-0.2 7.1,2.2 3.4,2.4 4.7,5.9 5.1,7.4 0.3,1.5 0,4 0,4 -5.1,1.2 -8.9,5.7 -8.9,11.1 0,5.3 3.6,9.8 8.5,11.1 l 0.2,19.2 c 0,0 0,3.5 0.6,5.8 0.6,2.3 2.7,6.8 6.1,9.5 3.4,2.7 8.5,5 14.5,4.1 6,-0.9 10.1,-4.6 11.9,-7.1 1.9,-2.5 3.9,-7.8 3.6,-10.7 1.6,-1 2.6,-2.7 2.6,-4.7 0,-3 -2.5,-5.5 -5.5,-5.5 -3,0 -5.5,2.5 -5.5,5.5 0,2 1,3.7 2.6,4.7 v 0 c 0,0 0.1,3.3 -1.9,6.3 -1.9,3 -6.4,6.4 -11.2,5.9 -4.8,-0.6 -7.3,-2.4 -8.6,-4.1 -1.3,-1.7 -2.3,-3.6 -2.8,-5.1 -0.4,-1.5 -0.4,-3.5 -0.4,-3.5 0,0 4.2,3.5 9.7,1.9 5.5,-1.6 7.5,-6.2 8.2,-8.1 0,0 0.9,-2.6 1.3,-7.2 0.3,-3.6 0.1,-7 0.5,-9.4 0.2,-1.2 1,-2.3 2.3,-3.1 1.3,-0.9 3.3,-1.2 4.9,-0.7 1.6,0.5 3,1.8 3.4,2.6 0.5,0.9 0.5,2.8 0.5,2.8 v 0 c -1.1,0.9 -1.9,2.3 -1.9,3.8 0,2.7 2.2,4.9 4.9,4.9 2.7,0 4.9,-2.2 4.9,-4.9 -0.4,-1.8 -1.2,-3.2 -2.4,-4.1 z M 54.1,94.6 c -1,0 -1.9,-0.8 -1.9,-1.9 0,-1 0.8,-1.9 1.9,-1.9 1,0 1.9,0.8 1.9,1.9 -0.1,1.1 -0.9,1.9 -1.9,1.9 z m 5.9,13.5 c -1,0 -1.9,-0.8 -1.9,-1.9 0,-1 0.8,-1.9 1.9,-1.9 1,0 1.9,0.8 1.9,1.9 0,1 -0.8,1.9 -1.9,1.9 z M 97.2,79.2 c 0,3.5 -2.9,6.4 -6.4,6.4 -3.5,0 -6.4,-2.9 -6.4,-6.4 0,-3.5 2.9,-6.4 6.4,-6.4 3.5,0 6.4,2.9 6.4,6.4 z m 23.2,6.4 c -3.5,0 -6.4,-2.9 -6.4,-6.4 0,-3.5 2.9,-6.4 6.4,-6.4 3.5,0 6.4,2.9 6.4,6.4 0,3.5 -2.9,6.4 -6.4,6.4 z m 30.9,18.9 c 1,0 1.9,0.8 1.9,1.9 0,1 -0.8,1.9 -1.9,1.9 -1,0 -1.9,-0.8 -1.9,-1.9 0.1,-1.1 0.9,-1.9 1.9,-1.9 z m 6.1,-9.6 c -1,0 -1.9,-0.8 -1.9,-1.9 0,-1 0.8,-1.9 1.9,-1.9 1,0 1.9,0.8 1.9,1.9 -0.1,1.1 -0.9,1.9 -1.9,1.9 z"
           id="path3716"
           inkscape:connector-curvature="0"
           style="fill:#ffffff" /></g></g></g><circle
     class="st9"
     cx="81.800003"
     cy="69.199997"
     r="6.4000001"
     id="circle3722"
     style="fill:#ceb15f" /><circle
     class="st9"
     cx="45"
     cy="82.800003"
     r="1.9"
     id="circle3724"
     style="fill:#ceb15f" /><circle
     class="st9"
     cx="51"
     cy="96.199997"
     r="1.9"
     id="circle3726"
     style="fill:#ceb15f" /><circle
     class="st9"
     cx="148.39999"
     cy="83"
     r="1.9"
     id="circle3728"
     style="fill:#ceb15f" /><circle
     class="st9"
     cx="142.3"
     cy="96.300003"
     r="1.9"
     id="circle3730"
     style="fill:#ceb15f" /><circle
     class="st9"
     cx="111.3"
     cy="69.199997"
     r="6.4000001"
     id="circle3732"
     style="fill:#ceb15f" /></svg>