<?xml version="1.0" encoding="UTF-8" standalone="no"?>
<!-- Generator: Adobe Illustrator 21.0.0, SVG Export Plug-In . SVG Version: 6.00 Build 0)  -->

<svg
   xmlns:dc="http://purl.org/dc/elements/1.1/"
   xmlns:cc="http://creativecommons.org/ns#"
   xmlns:rdf="http://www.w3.org/1999/02/22-rdf-syntax-ns#"
   xmlns:svg="http://www.w3.org/2000/svg"
   xmlns="http://www.w3.org/2000/svg"
   xmlns:sodipodi="http://sodipodi.sourceforge.net/DTD/sodipodi-0.dtd"
   xmlns:inkscape="http://www.inkscape.org/namespaces/inkscape"
   version="1.1"
   id="Layer_1"
   x="0px"
   y="0px"
   viewBox="0 0 191.70001 166"
   xml:space="preserve"
   sodipodi:docname="OctiHolesBlank.svg"
   width="50.720627mm"
   height="43.920834mm"
   inkscape:version="0.92.1 r15371"><metadata
     id="metadata3739"><rdf:RDF><cc:Work
         rdf:about=""><dc:format>image/svg+xml</dc:format><dc:type
           rdf:resource="http://purl.org/dc/dcmitype/StillImage" /><dc:title></dc:title></cc:Work></rdf:RDF></metadata><defs
     id="defs3737" /><sodipodi:namedview
     pagecolor="#ffffff"
     bordercolor="#666666"
     borderopacity="1"
     objecttolerance="10"
     gridtolerance="10"
     guidetolerance="10"
     inkscape:pageopacity="0"
     inkscape:pageshadow="2"
     inkscape:window-width="1920"
     inkscape:window-height="1017"
     id="namedview3735"
     showgrid="false"
     units="mm"
     fit-margin-top="0"
     fit-margin-left="0"
     fit-margin-right="0"
     fit-margin-bottom="0"
     inkscape:zoom="4.5698925"
     inkscape:cx="60.291175"
     inkscape:cy="82.999994"
     inkscape:window-x="-8"
     inkscape:window-y="-8"
     inkscape:window-maximized="1"
     inkscape:current-layer="Layer_1" /><style
     type="text/css"
     id="style3680">
	.st0{fill:#333333;}
	.st1{fill:#50B648;}
	.st2{fill:#FFFFFF;}
	.st3{fill:#24501B;}
	.st4{fill:#5C9E20;}
	.st5{fill:#302C23;}
	.st6{fill:url(#SVGID_1_);}
	.st7{opacity:0.69;}
	.st8{fill:url(#SVGID_2_);}
	.st9{fill:#CEB15F;}
</style><g
     id="XMLID_13_"
     transform="translate(-9,-10)" /><path
     id="circle3732"
     style="fill:#000000;fill-opacity:1"
     d="m 117.7,69.199997 a 6.4000001,6.4000001 0 0 1 -6.4,6.4 6.4000001,6.4000001 0 0 1 -6.4,-6.4 6.4000001,6.4000001 0 0 1 6.4,-6.4 6.4000001,6.4000001 0 0 1 6.4,6.4 z m 26.5,27.100006 a 1.9,1.9 0 0 1 -1.9,1.9 1.9,1.9 0 0 1 -1.9,-1.9 1.9,1.9 0 0 1 1.9,-1.9 1.9,1.9 0 0 1 1.9,1.9 z M 150.29999,83 a 1.9,1.9 0 0 1 -1.9,1.9 1.9,1.9 0 0 1 -1.9,-1.9 1.9,1.9 0 0 1 1.9,-1.9 1.9,1.9 0 0 1 1.9,1.9 z M 52.9,96.199997 a 1.9,1.9 0 0 1 -1.9,1.9 1.9,1.9 0 0 1 -1.9,-1.9 1.9,1.9 0 0 1 1.9,-1.9 1.9,1.9 0 0 1 1.9,1.9 z m -6,-13.399994 a 1.9,1.9 0 0 1 -1.9,1.9 1.9,1.9 0 0 1 -1.9,-1.9 1.9,1.9 0 0 1 1.9,-1.9 1.9,1.9 0 0 1 1.9,1.9 z M 88.200003,69.199997 a 6.4000001,6.4000001 0 0 1 -6.4,6.4 6.4000001,6.4000001 0 0 1 -6.4,-6.4 6.4000001,6.4000001 0 0 1 6.4,-6.4 6.4000001,6.4000001 0 0 1 6.4,6.4 z" /></svg>